<svg width="33" height="34" viewBox="0 0 33 34" fill="none" xmlns="http://www.w3.org/2000/svg">
  <path
    d="M16.72 15.8717C16.5825 15.8579 16.4175 15.8579 16.2663 15.8717C12.9938 15.7617 10.395 13.0804 10.395 9.78042C10.395 6.41167 13.1175 3.67542 16.5 3.67542C19.8688 3.67542 22.605 6.41167 22.605 9.78042C22.5913 13.0804 19.9925 15.7617 16.72 15.8717Z"
    stroke="white" strokeWidth="1.5" strokeLinecap="round" strokeLinejoin="round" />
  <path
    d="M9.84499 20.9454C6.51749 23.1729 6.51749 26.8029 9.84499 29.0167C13.6262 31.5467 19.8275 31.5467 23.6087 29.0167C26.9362 26.7892 26.9362 23.1592 23.6087 20.9454C19.8412 18.4292 13.64 18.4292 9.84499 20.9454Z"
    stroke="white" strokeWidth="1.5" strokeLinecap="round" strokeLinejoin="round" />
</svg>
