<svg width="33" height="34" viewBox="0 0 33 34" fill="none" xmlns="http://www.w3.org/2000/svg">
  <path d="M12.1138 3.67542L7.13626 8.66667" stroke="white" strokeWidth="1.5" strokeMiterlimit="10"
    strokeLinecap="round" strokeLinejoin="round" />
  <path d="M20.8863 3.67542L25.8638 8.66667" stroke="white" strokeWidth="1.5" strokeMiterlimit="10"
    strokeLinecap="round" strokeLinejoin="round" />
  <path
    d="M2.75 11.7192C2.75 9.17543 4.11125 8.96918 5.8025 8.96918H27.1975C28.8888 8.96918 30.25 9.17543 30.25 11.7192C30.25 14.6754 28.8888 14.4692 27.1975 14.4692H5.8025C4.11125 14.4692 2.75 14.6754 2.75 11.7192Z"
    stroke="white" strokeWidth="1.5" />
  <path d="M13.42 20.1754V25.0567" stroke="white" strokeWidth="1.5" strokeLinecap="round" />
  <path d="M19.745 20.1754V25.0567" stroke="white" strokeWidth="1.5" strokeLinecap="round" />
  <path
    d="M4.8125 14.6754L6.75125 26.5554C7.19125 29.2229 8.25 31.1754 12.1825 31.1754H20.4738C24.75 31.1754 25.3825 29.3054 25.8775 26.7204L28.1875 14.6754"
    stroke="white" strokeWidth="1.5" strokeLinecap="round" />
</svg>
